<svg viewBox="0 0 256 154" xmlns="http://www.w3.org/2000/svg" fill="none">
  <path fill="#38BDF8" d="M128 0C93.867 0 72.533 17.067 64 51.2c12.8-17.067 27.733-23.467 44.8-19.2 11.562 2.89 17.498 11.803 23.467 19.2 10.24 12.8 20.48 25.6 44.8 25.6 34.133 0 55.467-17.067 64-51.2-12.8 17.067-27.733 23.467-44.8 19.2-11.562-2.89-17.498-11.803-23.467-19.2C162.56 12.8 152.32 0 128 0Zm-64 76.8c-34.133 0-55.467 17.067-64 51.2 12.8-17.067 27.733-23.467 44.8-19.2 11.562 2.89 17.498 11.803 23.467 19.2 10.24 12.8 20.48 25.6 44.8 25.6 34.133 0 55.467-17.067 64-51.2-12.8 17.067-27.733 23.467-44.8 19.2-11.562-2.89-17.498-11.803-23.467-19.2C98.56 89.6 88.32 76.8 64 76.8Z"/>
</svg>
